#!OML:ASF G:\JayActor3\Patient Classification 1\Patient 1\Session 2\male.ASF
:FULLY-SPECIFIED
:DEGREES
1062
root 46.04 15.6602 -7.23606 -1.37069 -86.6366 6.52748
lowerback -4.58303 -1.07314 -3.51381
upperback 3.51153 -1.20188 0.0252387
thorax 6.30739 -0.758376 1.87562
lowerneck -8.93266 -2.58967 -2.9995
upperneck 5.36005 -3.73842 7.61845
head 3.61149 -1.62415 2.88032
rclavicle 4.27387e-015 -3.57812e-015
rhumerus -33.4692 -0.806523 -86.6319
rradius 32.2104
rwrist -8.23846
rhand -22.5707 4.44645
rfingers 7.12502
rthumb 3.85766 -25.4984
lclavicle 4.27387e-015 -3.57812e-015
lhumerus -27.8493 -0.424337 87.0429
lradius 41.5173
lwrist 18.3827
lhand -17.2935 19.972
lfingers 7.12502
lthumb 8.95214 49.7621
rfemur -8.78794 1.58265 20.422
rtibia 47.1136
rfoot -39.744 -10.3321
rtoes -1.04959
lfemur -1.24592 2.76342 -19.2301
ltibia 31.7972
lfoot -29.4477 6.93016
ltoes -22.0878
1063
root 45.9458 15.6243 -7.238 -5.04485 -86.766 10.0796
lowerback -4.58951 -1.06688 -3.68876
upperback 3.50766 -1.1726 -0.127173
thorax 6.30636 -0.748165 1.81745
lowerneck -8.84331 -2.57048 -3.0086
upperneck 5.85911 -3.76228 7.92204
head 3.39939 -1.60012 2.68688
rclavicle 1.21259e-014 1.19271e-015
rhumerus -33.8077 -0.13971 -86.9664
rradius 32.8168
rwrist -8.38246
rhand -22.5906 4.24547
rfingers 7.12502
rthumb 3.83845 -25.6997
lclavicle 1.21259e-014 1.19271e-015
lhumerus -27.3095 -0.594417 86.5784
lradius 42.5339
lwrist 18.2575
lhand -17.2124 19.9469
lfingers 7.12502
lthumb 9.03042 49.7336
rfemur -8.87371 1.71634 20.2718
rtibia 48.2115
rfoot -39.6776 -10.3712
rtoes -2.6322
lfemur -0.61295 2.76091 -19.42
ltibia 31.6511
lfoot -29.6213 7.08125
ltoes -22.2101
1064
root 45.8495 15.5912 -7.24064 -9.87639 -86.8805 14.8555
lowerback -4.62021 -1.05841 -3.88331
upperback 3.45403 -1.13694 -0.305532
thorax 6.26616 -0.733494 1.74404
lowerneck -8.8552 -2.55777 -3.12451
upperneck 6.27066 -3.76887 8.0338
head 3.53024 -1.59322 2.73888
rclavicle 6.60959e-015 9.93923e-016
rhumerus -34.2316 0.578279 -87.3079
rradius 33.516
rwrist -8.46397
rhand -22.5191 3.99273
rfingers 7.12502
rthumb 3.9075 -25.9512
lclavicle 6.60959e-015 9.93923e-016
lhumerus -26.6965 -0.802308 86.0194
lradius 43.6006
lwrist 18.0758
lhand -17.0868 19.8566
lfingers 7.12502
lthumb 9.15163 49.6381
rfemur -9.05609 1.83315 20.0589
rtibia 49.3202
rfoot -39.5105 -10.3976
rtoes -4.05784
lfemur -0.015756 2.72269 -19.6811
ltibia 31.4482
lfoot -29.7359 7.26967
ltoes -22.3964
1065
root 45.7516 15.5617 -7.24403 -15.8511 -86.9362 20.8776
lowerback -4.68935 -1.05453 -4.10316
upperback 3.33125 -1.10357 -0.507175
thorax 6.17522 -0.718284 1.66056
lowerneck -8.99393 -2.54914 -3.27481
upperneck 6.88924 -3.78447 8.09672
head 3.74483 -1.58695 2.77998
rclavicle 9.74045e-015 -7.95139e-015
rhumerus -34.7709 1.31744 -87.6333
rradius 34.3413
rwrist -8.48811
rhand -22.2974 3.70086
rfingers 7.12502
rthumb 4.1216 -26.239
lclavicle 9.74045e-015 -7.95139e-015
lhumerus -26.0189 -1.04625 85.3672
lradius 44.7412
lwrist 17.9071
lhand -16.9027 19.7397
lfingers 7.12502
lthumb 9.32926 49.5133
rfemur -9.33334 1.88972 19.7778
rtibia 50.353
rfoot -39.2785 -10.4219
rtoes -5.15798
lfemur 0.486018 2.6157 -20.026
ltibia 31.2086
lfoot -29.7711 7.50667
ltoes -22.6746
1066
root 45.6518 15.537 -7.24793 -22.28 -86.9022 27.4798
lowerback -4.80938 -1.05535 -4.33166
upperback 3.12809 -1.07415 -0.725921
thorax 6.02876 -0.702423 1.56406
lowerneck -9.27822 -2.54661 -3.44419
upperneck 7.71754 -3.80809 8.0705
head 4.04664 -1.58267 2.79548
rclavicle -1.62506e-014 -1.23246e-014
rhumerus -35.461 2.0261 -87.9168
rradius 35.3361
rwrist -8.45514
rhand -21.9203 3.40831
rfingers 7.12502
rthumb 4.48576 -26.5242
lclavicle -1.62506e-014 -1.23246e-014
lhumerus -25.2851 -1.33321 84.6275
lradius 45.982
lwrist 17.8099
lhand -16.6622 19.6493
lfingers 7.12502
lthumb 9.56125 49.4124
rfemur -9.66267 1.85155 19.4488
rtibia 51.1938
rfoot -39.0325 -10.4752
rtoes -5.87848
lfemur 0.855852 2.40767 -20.4449
ltibia 30.9527
lfoot -29.7148 7.80044
ltoes -23.0827
1067
root 45.549 15.5192 -7.25199 -27.9325 -86.7612 33.4455
lowerback -4.99304 -1.06088 -4.54156
upperback 2.845 -1.05117 -0.949334
thorax 5.83443 -0.686445 1.45188
lowerneck -9.72434 -2.55073 -3.60612
upperneck 8.72777 -3.83265 7.90392
head 4.42917 -1.5805 2.76565
rclavicle 1.09829e-014 -1.59028e-015
rhumerus -36.3276 2.66628 -88.1316
rradius 36.5538
rwrist -8.40888
rhand -21.4019 3.12247
rfingers 7.12502
rthumb 4.98626 -26.7989
lclavicle 1.09829e-014 -1.59028e-015
lhumerus -24.4873 -1.67747 83.8128
lradius 47.351
lwrist 17.8377
lhand -16.3763 19.611
lfingers 7.12502
lthumb 9.83708 49.3613
rfemur -9.9684 1.6901 19.1143
rtibia 51.7119
rfoot -38.8538 -10.5638
rtoes -6.16844
lfemur 1.06782 2.07783 -20.9063
ltibia 30.7017
lfoot -29.5608 8.12769
ltoes -23.5664
1068
root 45.4418 15.5116 -7.25569 -31.5914 -86.5268 37.5725
lowerback -5.25635 -1.06931 -4.69428
upperback 2.48826 -1.03522 -1.16027
thorax 5.60769 -0.670081 1.31998
lowerneck -10.3213 -2.56115 -3.74243
upperneck 9.82915 -3.84542 7.57042
head 4.86267 -1.57938 2.67987
rclavicle 6.5102e-015 2.46493e-014
rhumerus -37.3914 3.22621 -88.2579
rradius 38.0226
rwrist -8.38067
rhand -20.8554 2.91667
rfingers 7.12502
rthumb 5.51392 -26.9916
lclavicle 6.5102e-015 2.46493e-014
lhumerus -23.6061 -2.08099 82.9391
lradius 48.862
lwrist 17.9999
lhand -16.0721 19.6262
lfingers 7.12502
lthumb 10.1306 49.3623
rfemur -10.1763 1.41484 18.8377
rtibia 51.7827
rfoot -38.8294 -10.7026
rtoes -5.97547
lfemur 1.09149 1.64742 -21.3538
ltibia 30.4797
lfoot -29.2975 8.44679
ltoes -24.0742
1069
root 45.3288 15.5171 -7.25891 -32.66 -86.2373 39.2673
lowerback -5.60358 -1.07076 -4.75344
upperback 2.06993 -1.01641 -1.34066
thorax 5.36267 -0.648463 1.16756
lowerneck -11.0345 -2.57572 -3.83907
upperneck 10.8827 -3.83057 7.06848
head 5.29849 -1.57659 2.53586
rclavicle -1.85367e-014 -4.77083e-015
rhumerus -38.6713 3.70826 -88.284
rradius 39.7684
rwrist -8.42606
rhand -20.4435 2.81394
rfingers 7.12502
rthumb 5.91161 -27.0836
lclavicle -1.85367e-014 -4.77083e-015
lhumerus -22.6179 -2.54144 82.025
lradius 50.5263
lwrist 18.2691
lhand -15.7763 19.6981
lfingers 7.12502
lthumb 10.416 49.4201
rfemur -10.2204 1.0978 18.696
rtibia 51.3172
rfoot -39.0073 -10.9458
rtoes -5.35612
lfemur 0.899335 1.19657 -21.7109
ltibia 30.3251
lfoot -28.9094 8.69191
ltoes -24.5511
1070
root 45.2098 15.5373 -7.26172 -31.2737 -85.9307 38.6641
lowerback -6.02661 -1.0493 -4.69668
upperback 1.6015 -0.976408 -1.4816
thorax 5.10568 -0.613088 0.993251
lowerneck -11.8025 -2.58991 -3.89982
upperneck 11.7239 -3.7761 6.45052
head 5.67584 -1.56789 2.35111
rclavicle -4.96962e-017 9.14409e-015
rhumerus -40.1693 4.13084 -88.2162
rradius 41.7811
rwrist -8.61914
rhand -20.3094 2.78663
rfingers 7.12502
rthumb 6.04116 -27.1072
lclavicle -4.96962e-017 9.14409e-015
lhumerus -21.5006 -3.06803 81.0793
lradius 52.3488
lwrist 18.6028
lhand -15.5101 19.7983
lfingers 7.12502
lthumb 10.6727 49.5072
rfemur -10.0783 0.86921 18.7491
rtibia 50.2944
rfoot -39.3882 -11.3303
rtoes -4.37577
lfemur 0.456669 0.847923 -21.911
ltibia 30.2916
lfoot -28.3966 8.78079
ltoes -24.9531
1071
root 45.0865 15.5725 -7.26491 -27.7742 -85.6473 36.1078
lowerback -6.50538 -0.985369 -4.50332
upperback 1.0904 -0.893075 -1.57929
thorax 4.8322 -0.553598 0.792036
lowerneck -12.566 -2.60341 -3.9468
upperneck 12.2032 -3.68517 5.80349
head 5.93887 -1.55166 2.15649
rclavicle 7.20594e-015 6.75868e-015
rhumerus -41.866 4.52644 -88.0811
rradius 44.0114
rwrist -8.99559
rhand -20.5751 2.78393
rfingers 7.12502
rthumb 5.78457 -27.1171
lclavicle 7.20594e-015 6.75868e-015
lhumerus -20.2385 -3.66757 80.0965
lradius 54.3348
lwrist 18.9694
lhand -15.317 19.9158
lfingers 7.12502
lthumb 10.859 49.615
rfemur -9.79817 0.909681 19.0539
rtibia 48.7749
rfoot -39.9181 -11.9162
rtoes -3.17503
lfemur -0.297695 0.735278 -21.894
ltibia 30.4501
lfoot -27.7527 8.67158
ltoes -25.3227
1072
root 44.9635 15.6209 -7.26989 -23.1314 -85.3958 32.5512
lowerback -6.97627 -0.863488 -4.21655
upperback 0.546241 -0.746608 -1.65471
thorax 4.51712 -0.462291 0.569358
lowerneck -13.2751 -2.60546 -4.00803
upperneck 12.1973 -3.55684 5.23612
head 6.04088 -1.51979 1.99216
rclavicle 5.31749e-015 -9.93923e-015
rhumerus -43.7026 4.92246 -87.9178
rradius 46.3719
rwrist -9.57094
rhand -21.2359 2.74762
rfingers 7.12502
rthumb 5.1466 -27.1699
lclavicle 5.31749e-015 -9.93923e-015
lhumerus -18.8233 -4.34237 79.0452
lradius 56.4892
lwrist 19.3607
lhand -15.2251 20.0264
lfingers 7.12502
lthumb 10.9476 49.7209
rfemur -9.47133 1.39101 19.5821
rtibia 46.9036
rfoot -40.5117 -12.7502
rtoes -1.8991
lfemur -1.39862 0.94443 -21.69
ltibia 30.8662
lfoot -26.9785 8.36164
ltoes -25.6898
1073
root 44.8468 15.6797 -7.27839 -18.0627 -85.1831 28.6857
lowerback -7.36245 -0.682121 -3.8826
upperback -0.0118874 -0.53443 -1.73269
thorax 4.13934 -0.339737 0.326186
lowerneck -13.9498 -2.59499 -4.11117
upperneck 11.6825 -3.40563 4.83496
head 5.97899 -1.47068 1.88975
rclavicle 7.00716e-015 1.35174e-014
rhumerus -45.5772 5.35207 -87.7713
rradius 48.7366
rwrist -10.2723
rhand -22.1891 2.6622
rfingers 7.12502
rthumb 4.22613 -27.2756
lclavicle 7.00716e-015 1.35174e-014
lhumerus -17.2386 -5.06881 77.872
lradius 58.8186
lwrist 19.8
lhand -15.28 20.1185
lfingers 7.12502
lthumb 10.8946 49.8159
rfemur -9.21189 2.40086 20.2744
rtibia 44.8762
rfoot -41.096 -13.8046
rtoes -0.584178
lfemur -2.86142 1.494 -21.3538
ltibia 31.5784
lfoot -26.0653 7.88903
ltoes -26.0731
1074
root 44.7418 15.7462 -7.29108 -13.1358 -85.0366 25.0182
lowerback -7.5662 -0.444922 -3.53113
upperback -0.549885 -0.260623 -1.83781
thorax 3.68212 -0.188909 0.0528739
lowerneck -14.6402 -2.57188 -4.26638
upperneck 10.6782 -3.24169 4.63603
head 5.76845 -1.40449 1.86154
rclavicle 4.32357e-015 9.54166e-015
rhumerus -47.3656 5.8459 -87.6735
rradius 50.979
rwrist -10.9686
rhand -23.2611 2.50942
rfingers 7.12502
rthumb 3.19098 -27.4464
lclavicle 4.32357e-015 9.54166e-015
lhumerus -15.4791 -5.79031 76.5135
lradius 61.3292
lwrist 20.3138
lhand -15.5335 20.2042
lfingers 7.12502
lthumb 10.6502 49.9143
rfemur -9.09935 3.88041 21.0307
rtibia 42.904
rfoot -41.6018 -14.9501
rtoes 0.73315
lfemur -4.63104 2.32793 -20.9622
ltibia 32.5807
lfoot -25.0137 7.33288
ltoes -26.4182
1075
root 44.6522 15.8191 -7.30748 -8.75211 -84.9668 21.8714
lowerback -7.48806 -0.165848 -3.18767
upperback -1.02553 0.0588176 -1.99095
thorax 3.13673 -0.0180367 -0.261606
lowerneck -15.417 -2.54826 -4.45706
upperneck 9.2543 -3.08473 4.60614
head 5.44305 -1.33203 1.8918
rclavicle 5.1684e-015 2.22639e-014
rhumerus -48.9577 6.4197 -87.6273
rradius 53.0173
rwrist -11.5304
rhand -24.2162 2.29433
rfingers 7.12502
rthumb 2.26857 -27.6734
lclavicle 5.1684e-015 2.22639e-014
lhumerus -13.5382 -6.44422 74.9197
lradius 64.0077
lwrist 20.9253
lhand -15.9749 20.2693
lfingers 7.12502
lthumb 10.2243 50.0008
rfemur -9.17297 5.56821 21.7224
rtibia 41.1685
rfoot -41.9138 -16.0253
rtoes 1.893
lfemur -6.60699 3.34188 -20.601
ltibia 33.835
lfoot -23.8138 6.84647
ltoes -26.7141
